<svg width="16" height="16" viewBox="0 0 16 16" fill="none" xmlns="http://www.w3.org/2000/svg">
<g clip-path="url(#clip0)">
<path d="M5.21126 4.46234C5.31846 4.68154 5.43366 4.87354 5.47846 5.10234C5.60326 5.73754 5.88966 6.30874 6.31846 6.78074C6.59046 7.07994 6.57446 7.38714 6.48166 7.69594C6.40166 7.96314 6.42566 8.15834 6.60326 8.36314C6.84006 8.63834 7.07686 8.91194 7.40486 9.08634C7.78406 9.28954 8.31526 9.25434 8.74406 8.91994C9.09446 8.64634 9.35686 8.29594 9.60006 7.92794C9.64326 7.86394 9.62566 7.80794 9.61286 7.74714C9.59686 7.67194 9.58246 7.59674 9.56646 7.52314C9.50086 7.22074 9.59046 6.98074 9.79686 6.74394C10.2097 6.26874 10.4849 5.71514 10.6129 5.09594C10.6593 4.87194 10.7777 4.68634 10.9025 4.48794C10.8993 4.56474 10.9025 4.64314 10.8913 4.71994C10.7729 5.51034 10.8625 6.29114 11.0033 7.06554C11.0625 7.38394 11.1665 7.69754 11.2945 7.99994C11.3697 8.17594 11.5489 8.17274 11.6865 8.22874C12.1841 8.42714 12.6673 8.65114 13.1249 8.93274C13.5393 9.18714 13.7489 9.57434 13.8961 10.0111C14.1265 10.6927 14.3281 11.3823 14.4657 12.0911C14.6161 12.8687 14.6753 13.6495 14.6305 14.4399C14.6097 14.7855 14.3921 14.9919 14.1025 15.1007C13.4161 15.3583 12.7089 15.5583 11.9889 15.7055C11.5649 15.7919 11.1393 15.8575 10.7169 15.9391C10.3969 16.0015 10.0833 15.9935 9.76486 15.9951C8.92646 16.0015 8.08646 15.9839 7.24806 16.0015C6.44166 16.0175 5.64966 15.9327 4.85606 15.7839C4.03846 15.6319 3.23206 15.4495 2.44486 15.1887C2.22246 15.1151 2.00326 15.0319 1.78726 14.9407C1.45286 14.7999 1.40006 14.4991 1.37606 14.1983C1.33926 13.7295 1.42406 13.2655 1.47366 12.8031C1.54086 12.1807 1.64806 11.5631 1.80166 10.9551C1.94566 10.3839 2.12006 9.82074 2.43366 9.31994C2.68486 8.91834 3.09126 8.69754 3.52806 8.53754C3.89126 8.40634 4.25606 8.27994 4.61926 8.14714C4.70246 8.11674 4.76166 8.06394 4.80006 7.96794C5.01766 7.40954 5.14246 6.83514 5.19686 6.23674C5.24486 5.71834 5.26726 5.20474 5.19046 4.68794C5.18246 4.62234 5.16806 4.55194 5.21126 4.46234ZM7.56166 13.7135C7.56166 13.8607 7.56806 13.9823 7.56006 14.1039C7.55206 14.2255 7.59046 14.2783 7.72006 14.2719C7.91206 14.2639 8.10406 14.2639 8.29606 14.2719C8.42726 14.2783 8.46086 14.2207 8.45766 14.1023C8.45126 13.8719 8.46246 13.6415 8.45286 13.4111C8.44806 13.2735 8.48806 13.2143 8.63686 13.2207C8.86726 13.2303 9.09766 13.2175 9.32806 13.2255C9.45446 13.2303 9.50086 13.1791 9.49926 13.0575C9.49606 12.8655 9.49126 12.6735 9.50086 12.4831C9.50886 12.3471 9.44326 12.3215 9.32806 12.3231C9.11046 12.3279 8.89286 12.3247 8.67526 12.3279C8.51686 12.3311 8.44166 12.2703 8.45126 12.0991C8.46406 11.8767 8.45286 11.6511 8.45766 11.4271C8.45926 11.3215 8.42406 11.2783 8.31206 11.2815C8.11366 11.2879 7.91526 11.2863 7.71686 11.2815C7.60486 11.2799 7.55526 11.3167 7.55846 11.4367C7.56486 11.6671 7.55206 11.8975 7.56326 12.1279C7.56966 12.2751 7.50246 12.3215 7.37126 12.3215C7.20486 12.3215 7.03846 12.3231 6.87206 12.3247C6.51526 12.3295 6.51526 12.3311 6.51686 12.6943C6.51846 13.2239 6.51846 13.2207 7.04486 13.2255C7.20966 13.2271 7.41926 13.1535 7.52486 13.2607C7.63366 13.3647 7.54406 13.5759 7.56166 13.7135ZM5.88486 3.73594C5.66726 3.73594 5.44966 3.73114 5.23206 3.73754C5.08646 3.74234 5.02726 3.68794 5.02246 3.53754C5.00966 3.16634 4.98406 2.79194 5.03526 2.42554C5.15846 1.55354 5.61926 0.577539 6.76806 0.227139C7.28486 0.0687393 7.80486 -0.0496607 8.33766 0.0191393C9.33926 0.147139 10.2209 0.519939 10.7105 1.47514C11.0257 2.08794 11.0241 2.76794 10.9969 3.44154C10.9953 3.50234 11.0049 3.56474 10.8897 3.54234C10.8001 3.52474 10.7857 3.64154 10.7713 3.70874C10.7489 3.81434 10.7185 3.83034 10.6177 3.77754C10.1809 3.54874 9.89446 3.19194 9.71846 2.74234C9.67046 2.61914 9.64966 2.59674 9.52646 2.68314C8.72806 3.23994 7.84006 3.55194 6.87526 3.67994C6.54566 3.72474 6.21606 3.73914 5.88486 3.73594Z" fill="#DBDDE0"/>
</g>
<defs>
<clipPath id="clip0">
<rect width="16" height="16" fill="white"/>
</clipPath>
</defs>
</svg>
